HIERARCHY
ROOT SpineBase
{
  OFFSET 0.000000 0.000000 0.000000
  CHANNELS 6 Xposition Yposition Zposition Zrotation Xrotation Yrotation
  JOINT SpineMid
  {
    OFFSET 0.000000 30.776609 0.000000
    CHANNELS 3 Zrotation Xrotation Yrotation
    JOINT SpineShoulder
    {
      OFFSET 0.125081 22.908967 -0.639571
      CHANNELS 3 Zrotation Xrotation Yrotation
      JOINT Neck
      {
        OFFSET 0.082506 7.591170 -0.498011
        CHANNELS 3 Zrotation Xrotation Yrotation
        JOINT Head
        {
          OFFSET -4.441715 13.029357 0.082900
          CHANNELS 3 Zrotation Xrotation Yrotation
          End Site
          {
            OFFSET 0 0 0
          }
        }
      }
      JOINT ShoulderLeft
      {
        OFFSET -17.506991 -4.250678 9.273756
        CHANNELS 3 Zrotation Xrotation Yrotation
        JOINT ElbowLeft
        {
          OFFSET -5.588133 -26.128829 1.343045
          CHANNELS 3 Zrotation Xrotation Yrotation
          JOINT WristLeft
          {
            OFFSET -1.519184 -21.075218 -6.284637
            CHANNELS 3 Zrotation Xrotation Yrotation
            JOINT HandLeft
            {
              OFFSET -0.933586 -9.053050 -0.765565
              CHANNELS 3 Zrotation Xrotation Yrotation
              JOINT HandTipLeft
              {
                OFFSET -0.605877 -9.218081 0.285562
                CHANNELS 3 Zrotation Xrotation Yrotation
                End Site
                {
                  OFFSET 0 0 0
                }
              }
              JOINT ThumbLeft
              {
                OFFSET -2.855990 0.146421 -1.951992
                CHANNELS 3 Zrotation Xrotation Yrotation
                End Site
                {
                  OFFSET 0 0 0
                }
              }
            }
          }
        }
      }
      JOINT ShoulderRight
      {
        OFFSET 13.343869 -3.130070 -6.265487
        CHANNELS 3 Zrotation Xrotation Yrotation
        JOINT ElbowRight
        {
          OFFSET 4.433475 -22.796450 -2.777193
          CHANNELS 3 Zrotation Xrotation Yrotation
          JOINT WristRight
          {
            OFFSET -8.291003 -20.709415 -9.727655
            CHANNELS 3 Zrotation Xrotation Yrotation
            JOINT HandRight
            {
              OFFSET -3.693344 -4.909659 -3.098841
              CHANNELS 3 Zrotation Xrotation Yrotation
              JOINT HandTipRight
              {
                OFFSET -5.653075 -4.222464 -5.793447
                CHANNELS 3 Zrotation Xrotation Yrotation
                End Site
                {
                  OFFSET 0 0 0
                }
              }
              JOINT ThumbRight
              {
                OFFSET 2.067701 -0.988806 -2.128038
                CHANNELS 3 Zrotation Xrotation Yrotation
                End Site
                {
                  OFFSET 0 0 0
                }
              }
            }
          }
        }
      }
    }
  }
  JOINT HipLeft
  {
    OFFSET -6.144356 -0.858810 -0.280650
    CHANNELS 3 Zrotation Xrotation Yrotation
    JOINT KneeLeft
    {
      OFFSET 0.831027 -36.359937 4.573149
      CHANNELS 3 Zrotation Xrotation Yrotation
      JOINT AnkleLeft
      {
        OFFSET 3.825439 -36.253346 7.973093
        CHANNELS 3 Zrotation Xrotation Yrotation
        JOINT FootLeft
        {
          OFFSET -1.237800 -8.056322 -5.260924
          CHANNELS 3 Zrotation Xrotation Yrotation
          End Site
          {
            OFFSET 0 0 0
          }
        }
      }
    }
  }
  JOINT HipRight
  {
    OFFSET 6.854011 2.452244 -6.029846
    CHANNELS 3 Zrotation Xrotation Yrotation
    JOINT KneeRight
    {
      OFFSET 7.995336 -34.180707 -2.355839
      CHANNELS 3 Zrotation Xrotation Yrotation
      JOINT AnkleRight
      {
        OFFSET 11.588069 -38.974124 10.027736
        CHANNELS 3 Zrotation Xrotation Yrotation
        JOINT FootRight
        {
          OFFSET -0.870274 -6.559758 -7.304065
          CHANNELS 3 Zrotation Xrotation Yrotation
          End Site
          {
            OFFSET 0 0 0
          }
        }
      }
    }
  }
}
MOTION
Frames: 6
Frame Time: 0.033333
-34.605624 83.285564 339.264965 -3.647849 -2.155899 -12.998090 1.256713 0.000305 12.843176 0.044072 -0.827642 -0.084086 -35.945000 -8.822955 -6.540211 0.000000 0.000000 0.000000 -16.161198 -4.551142 0.532675 17.553291 10.776516 -1.587274 -3.710166 -2.780881 -0.003384 7.609249 6.642962 -0.877406 0.000000 0.000000 0.000000 0.000000 0.000000 0.000000 35.816437 -21.921870 -3.346098 44.198760 18.648764 -71.863986 -29.540776 15.087934 -50.821887 21.633851 -30.495599 17.170024 0.000000 0.000000 0.000000 0.000000 0.000000 0.000000 -2.841957 3.761644 12.542652 7.323493 -7.471570 0.694164 7.455711 22.370151 -9.606924 0.000000 0.000000 0.000000 0.465604 7.879540 14.462327 -0.996380 -5.527317 -2.151527 11.705806 -6.936090 -9.062413 0.000000 0.000000 0.000000
-35.748220 83.104640 339.124580 -4.865956 -2.477593 -13.314078 1.385735 -0.065805 13.081694 -0.065875 -0.964262 -0.139608 -36.107280 -8.092709 -6.022201 0.000000 0.000000 0.000000 -15.219025 -5.711244 0.795467 17.396730 12.179819 -1.908335 -5.324601 -4.418232 -0.005419 8.346181 7.570769 -1.292526 0.000000 0.000000 0.000000 0.000000 0.000000 0.000000 36.740982 -17.942678 -4.008663 47.199360 8.822353 -69.132564 -26.897728 10.608753 -52.567721 5.872776 -32.031571 4.341465 0.000000 0.000000 0.000000 0.000000 0.000000 0.000000 -1.868860 3.203311 12.709731 9.118857 -5.853185 1.124880 10.863657 29.291212 -15.043181 0.000000 0.000000 0.000000 0.394292 8.372791 14.957583 2.407660 -5.644178 -1.366446 9.959813 2.778153 -11.511472 0.000000 0.000000 0.000000
-36.898531 82.815670 339.051418 -6.122333 -2.991903 -10.985167 1.422204 -0.302818 10.649816 -0.227617 -1.085401 -0.203622 -35.271170 -6.949119 -5.104366 0.000000 0.000000 0.000000 -13.819865 -6.507196 1.135598 16.136092 13.102427 -1.727836 -6.093870 -3.389370 -0.304595 9.013280 6.166307 -1.295221 0.000000 0.000000 0.000000 0.000000 0.000000 0.000000 35.777743 -10.664020 -4.947879 50.161150 -0.065948 -60.872754 -19.032331 5.659050 -51.410303 -9.851348 -29.459231 -14.129210 0.000000 0.000000 0.000000 0.000000 0.000000 0.000000 -0.692000 3.444518 10.271478 10.654428 -4.641466 1.505421 10.798938 35.577254 -17.395857 0.000000 0.000000 0.000000 0.704572 8.551348 12.657323 5.219592 -5.619539 -0.849453 7.544306 12.235710 -11.734517 0.000000 0.000000 0.000000
-38.025972 82.500364 339.145824 -7.369274 -3.762727 -7.219588 1.353322 -0.528528 6.751668 -0.347883 -1.119303 -0.264005 -34.223816 -6.095352 -4.424586 0.000000 0.000000 0.000000 -12.348072 -7.492899 1.504738 14.029766 14.580040 -1.158825 -4.932155 -1.743307 -0.860031 8.358025 4.852272 -1.141025 0.000000 0.000000 0.000000 0.000000 0.000000 0.000000 34.768835 -2.319106 -5.635197 51.844360 -4.970542 -52.246596 -5.728422 -0.944408 -45.330117 -6.533019 -28.864266 -19.405616 0.000000 0.000000 0.000000 0.000000 0.000000 0.000000 0.644990 4.332761 6.415847 11.975708 -3.853815 1.876383 8.430547 39.727220 -17.321970 0.000000 0.000000 0.000000 1.562912 8.688076 8.744069 7.761328 -4.788315 -0.160346 4.028563 19.334990 -10.509498 0.000000 0.000000 0.000000
-39.035509 82.179116 339.307083 -8.469207 -4.528483 -1.990354 1.282214 -0.425815 1.401882 -0.342913 -0.907853 -0.299847 -33.718430 -6.947832 -5.138697 0.000000 0.000000 0.000000 -10.653308 -9.252373 1.755102 9.832018 15.929997 0.366519 0.604639 -0.528268 -1.991018 4.989956 4.948335 -0.936179 0.000000 0.000000 0.000000 0.000000 0.000000 0.000000 33.459081 6.289618 -5.656753 50.211698 -6.978493 -42.840151 5.031145 -4.596148 -35.831226 -2.840862 -30.135545 -11.657683 0.000000 0.000000 0.000000 0.000000 0.000000 0.000000 2.301965 5.278348 1.095269 12.842078 -3.403075 2.184597 4.722295 41.860450 -15.530467 0.000000 0.000000 0.000000 2.807869 8.175232 3.146720 9.788472 -3.271045 0.494351 0.601350 24.164749 -8.872474 0.000000 0.000000 0.000000
-39.974228 81.811752 339.583440 -9.460134 -5.268820 3.746634 1.022145 -0.694750 -4.478530 -0.376406 -0.995159 -0.352327 -32.491581 -7.321760 -5.505115 0.000000 0.000000 0.000000 -9.075969 -9.028147 2.066352 7.995604 16.177141 1.089438 -10.285550 1.129501 -1.360732 17.356774 4.015667 -1.716597 0.000000 0.000000 0.000000 0.000000 0.000000 0.000000 30.509875 15.246347 -5.085314 45.826033 -6.084879 -35.503834 16.385960 -6.611391 -27.819132 -7.567688 -29.256534 -8.295100 0.000000 0.000000 0.000000 0.000000 0.000000 0.000000 4.365482 6.280986 -4.728935 13.146452 -3.520940 2.437057 -3.160946 41.903453 -9.553035 0.000000 0.000000 0.000000 4.289777 7.707559 -2.942847 11.203798 -2.019295 0.992592 -4.081136 26.613737 -5.434454 0.000000 0.000000 0.000000
